#!OML:ASF X:\für Bonn\!DataBase\2005_08_12_Daniel\c3d\Daniel.ASF
:FULLY-SPECIFIED
:DEGREES
169
root 1.16958 15.8649 3.61266 889.654 -39.1327 -895.819
lowerback 35.0236 -5.76082 7.7628
upperback 8.89794 -6.65405 -0.284288
thorax -8.2271 -4.00692 -1.71896
lowerneck -2.25847 4.66535 -1.12706
upperneck -1.14866 6.22074 -2.90743
head 0.0789404 3.09879 -0.649801
rclavicle 2.50469e-014 -6.59965e-014
rhumerus -44.273 0.147722 -88.0519
rradius 68.2427
rwrist 2.8816
rhand -28.6295 12.8754
rfingers 7.12502
rthumb -1.9939 -17.095
lclavicle 2.50469e-014 -6.59965e-014
lhumerus -26.9695 12.0539 86.6357
lradius 80.7061
lwrist -8.90567
lhand -28.3785 2.19433
lfingers 7.12502
lthumb -1.75151 32.1669
rfemur -38.2801 8.10243 25.7055
rtibia 50.5861
rfoot -6.71475 0.979436
rtoes -5.78376
lfemur 19.644 4.87564 -20.0328
ltibia 48.9373
lfoot -20.0898 -4.71018
ltoes -4.28888
170
root 1.06798 15.8904 3.49636 889.775 -39.2256 -895.765
lowerback 35.1152 -5.85928 7.98182
upperback 8.81911 -6.67549 -0.263496
thorax -8.35945 -4.0157 -1.78678
lowerneck -2.35073 4.66909 -1.20277
upperneck -1.00862 6.23395 -2.88547
head 0.133332 3.10317 -0.626417
rclavicle 4.45278e-014 -4.25399e-014
rhumerus -44.3584 0.0609295 -88.0235
rradius 68.4272
rwrist 2.79373
rhand -28.7828 12.8267
rfingers 7.12502
rthumb -2.14195 -17.1423
lclavicle 4.45278e-014 -4.25399e-014
lhumerus -27.0717 11.9834 86.5685
lradius 80.7188
lwrist -8.97024
lhand -28.2755 2.18365
lfingers 7.12502
lthumb -1.65199 32.157
rfemur -38.0713 7.98344 25.8198
rtibia 50.9782
rfoot -7.08764 1.05858
rtoes -5.81721
lfemur 19.2475 4.80322 -19.868
ltibia 49.7101
lfoot -18.1348 -5.08639
ltoes -3.64173
171
root 0.969187 15.9125 3.37866 889.84 -39.2939 -895.717
lowerback 35.2527 -5.9221 8.17744
upperback 8.75472 -6.66183 -0.248063
thorax -8.4881 -4.01007 -1.85942
lowerneck -2.45839 4.64941 -1.31178
upperneck -0.850883 6.21773 -2.8285
head 0.193109 3.09264 -0.586831
rclavicle 1.04064e-013 -5.50634e-014
rhumerus -44.435 0.0268387 -87.987
rradius 68.5963
rwrist 2.63615
rhand -28.9389 12.7624
rfingers 7.12502
rthumb -2.29273 -17.205
lclavicle 1.04064e-013 -5.50634e-014
lhumerus -27.1336 11.871 86.4696
lradius 80.6926
lwrist -9.01834
lhand -28.1196 2.27984
lfingers 7.12502
lthumb -1.50138 32.2543
rfemur -37.7876 7.94208 25.9461
rtibia 51.3636
rfoot -7.49819 1.08325
rtoes -6.11192
lfemur 18.8134 4.92405 -19.5496
ltibia 50.6303
lfoot -16.2397 -5.5081
ltoes -3.30429
172
root 0.872468 15.9361 3.26259 889.931 -39.3773 -895.642
lowerback 35.3707 -5.98873 8.35478
upperback 8.67142 -6.6526 -0.207633
thorax -8.6268 -4.00568 -1.89511
lowerneck -2.58867 4.62691 -1.37985
upperneck -0.665024 6.19806 -2.83909
head 0.268914 3.07907 -0.573345
rclavicle 1.10922e-013 -4.23411e-014
rhumerus -44.5173 0.00957659 -87.9318
rradius 68.8216
rwrist 2.46545
rhand -29.0962 12.7914
rfingers 7.12502
rthumb -2.44462 -17.1744
lclavicle 1.10922e-013 -4.23411e-014
lhumerus -27.1906 11.8969 86.431
lradius 80.6771
lwrist -9.07894
lhand -28.1054 2.266
lfingers 7.12502
lthumb -1.48772 32.2406
rfemur -37.5467 7.83125 26.1072
rtibia 51.7284
rfoot -7.94111 1.1512
rtoes -6.23282
lfemur 18.232 5.07784 -19.1543
ltibia 51.6821
lfoot -14.1932 -5.98438
ltoes -3.03999
173
root 0.776377 15.9572 3.14774 890.053 -39.4801 -895.653
lowerback 35.467 -6.03988 8.50418
upperback 8.60224 -6.64008 -0.219168
thorax -8.74729 -3.99828 -1.97543
lowerneck -2.61454 4.60648 -1.38957
upperneck -0.549156 6.17582 -2.83142
head 0.30773 3.06638 -0.567397
rclavicle 7.25564e-014 -8.94531e-015
rhumerus -44.61 -0.074486 -87.9324
rradius 69.0818
rwrist 2.26332
rhand -29.2042 12.658
rfingers 7.12502
rthumb -2.54889 -17.3065
lclavicle 7.25564e-014 -8.94531e-015
lhumerus -27.269 11.8249 86.31
lradius 80.6182
lwrist -9.1715
lhand -28.0452 2.23242
lfingers 7.12502
lthumb -1.42957 32.2074
rfemur -37.2982 7.74911 26.1769
rtibia 52.1012
rfoot -8.44068 1.17826
rtoes -6.58975
lfemur 17.5948 5.2253 -18.836
ltibia 52.8537
lfoot -12.1523 -6.40569
ltoes -2.63766
174
root 0.681218 15.9804 3.03231 890.086 -39.5866 -895.602
lowerback 35.6151 -6.08612 8.63995
upperback 8.54335 -6.62388 -0.18924
thorax -8.86731 -3.99233 -2.00307
lowerneck -2.76824 4.57457 -1.40776
upperneck -0.348616 6.14372 -2.85031
head 0.394062 3.04593 -0.563927
rclavicle -2.75317e-014 -3.77691e-015
rhumerus -44.6283 -0.134001 -87.8907
rradius 69.2998
rwrist 2.20419
rhand -29.2503 12.5794
rfingers 7.12502
rthumb -2.59343 -17.3845
lclavicle -2.75317e-014 -3.77691e-015
lhumerus -27.2993 11.8669 86.2162
lradius 80.5098
lwrist -9.30487
lhand -28.002 2.09824
lfingers 7.12502
lthumb -1.3878 32.0735
rfemur -36.9462 7.68776 26.299
rtibia 52.433
rfoot -9.0107 1.17591
rtoes -6.90999
lfemur 16.9401 5.36635 -18.4586
ltibia 54.1421
lfoot -10.1492 -6.77255
ltoes -2.37965
175
root 0.587143 16.0014 2.91844 890.207 -39.6985 -895.64
lowerback 35.7135 -6.10852 8.71811
upperback 8.46158 -6.59435 -0.17999
thorax -8.99423 -3.97652 -2.03173
lowerneck -2.73242 4.55287 -1.38512
upperneck -0.251668 6.11686 -2.91489
head 0.420684 3.03093 -0.586932
rclavicle 9.52179e-014 -3.93594e-014
rhumerus -44.7539 -0.221306 -87.8317
rradius 69.5919
rwrist 2.11232
rhand -29.2755 12.533
rfingers 7.12502
rthumb -2.61776 -17.4307
lclavicle 9.52179e-014 -3.93594e-014
lhumerus -27.3775 11.9176 86.1572
lradius 80.4406
lwrist -9.40262
lhand -28.0973 2.28624
lfingers 7.12502
lthumb -1.47992 32.2609
rfemur -36.6431 7.60194 26.3568
rtibia 52.7702
rfoot -9.60295 1.21525
rtoes -7.30519
lfemur 16.1522 5.43743 -18.2131
ltibia 55.5518
lfoot -8.32393 -7.02548
ltoes -2.2099
176
root 0.495915 16.0218 2.80366 890.264 -39.7973 -895.657
lowerback 35.812 -6.11516 8.7738
upperback 8.42883 -6.56703 -0.187081
thorax -9.06701 -3.96376 -2.06855
lowerneck -2.69975 4.53077 -1.33624
upperneck -0.193923 6.08759 -2.96557
head 0.436149 3.01544 -0.610482
rclavicle 1.40938e-013 -9.93923e-014
rhumerus -44.7311 -0.216381 -87.8344
rradius 69.8094
rwrist 2.05917
rhand -29.2093 12.3888
rfingers 7.12502
rthumb -2.5538 -17.5757
lclavicle 1.40938e-013 -9.93923e-014
lhumerus -27.4282 11.9338 86.0162
lradius 80.3384
lwrist -9.529
lhand -28.1566 2.27722
lfingers 7.12502
lthumb -1.53717 32.2514
rfemur -36.2783 7.57384 26.43
rtibia 53.0789
rfoot -10.1887 1.21089
rtoes -7.68948
lfemur 15.3571 5.54043 -17.9276
ltibia 57.043
lfoot -6.9503 -7.11384
ltoes -3.25831
